<?xml version="1.0" encoding="utf-8"?>
<!-- Generator: Adobe Illustrator 23.1.1, SVG Export Plug-In . SVG Version: 6.00 Build 0)  -->
<svg version="1.1" id="Layer_1" xmlns="http://www.w3.org/2000/svg" xmlns:xlink="http://www.w3.org/1999/xlink" x="0px" y="0px"
	 viewBox="0 0 15.76 12.81" style="enable-background:new 0 0 15.76 12.81;" xml:space="preserve">
<style type="text/css">
	.st0{clip-path:url(#SVGID_2_);fill:#FFFFFF;}
</style>
<g>
	<defs>
		<rect id="SVGID_1_" y="0" width="15.76" height="12.81"/>
	</defs>
	<clipPath id="SVGID_2_">
		<use xlink:href="#SVGID_1_"  style="overflow:visible;"/>
	</clipPath>
	<path class="st0" d="M4.96,12.81c5.95,0,9.2-4.93,9.2-9.2c0-0.14,0-0.28-0.01-0.42c0.63-0.46,1.18-1.03,1.61-1.67
		c-0.58,0.26-1.2,0.43-1.86,0.51c0.67-0.4,1.18-1.03,1.42-1.79c-0.62,0.37-1.32,0.64-2.05,0.78C12.68,0.39,11.84,0,10.91,0
		C9.12,0,7.68,1.45,7.68,3.23c0,0.25,0.03,0.5,0.08,0.74C5.07,3.83,2.69,2.55,1.1,0.59C0.82,1.07,0.66,1.63,0.66,2.22
		c0,1.12,0.57,2.11,1.44,2.69C1.57,4.89,1.07,4.75,0.63,4.5c0,0.01,0,0.03,0,0.04c0,1.57,1.12,2.87,2.59,3.17
		C2.95,7.79,2.67,7.83,2.37,7.83c-0.21,0-0.41-0.02-0.61-0.06c0.41,1.28,1.6,2.22,3.02,2.25c-1.11,0.87-2.5,1.38-4.02,1.38
		c-0.26,0-0.52-0.02-0.77-0.05C1.43,12.27,3.13,12.81,4.96,12.81"/>
</g>
</svg>
