<?xml version="1.0" encoding="utf-8"?>
<!-- Generator: Adobe Illustrator 23.1.1, SVG Export Plug-In . SVG Version: 6.00 Build 0)  -->
<svg version="1.1" id="Layer_1" xmlns="http://www.w3.org/2000/svg" xmlns:xlink="http://www.w3.org/1999/xlink" x="0px" y="0px"
	 viewBox="0 0 12.88 12.81" style="enable-background:new 0 0 12.88 12.81;" xml:space="preserve">
<style type="text/css">
	.st0{clip-path:url(#SVGID_2_);fill:#FFFFFF;}
</style>
<g>
	<defs>
		<rect id="SVGID_1_" y="0" width="12.89" height="12.81"/>
	</defs>
	<clipPath id="SVGID_2_">
		<use xlink:href="#SVGID_1_"  style="overflow:visible;"/>
	</clipPath>
	<path class="st0" d="M12.88,6.44C12.88,2.88,10,0,6.44,0S0,2.88,0,6.44c0,3.22,2.36,5.88,5.44,6.36V8.3H3.8V6.44h1.64V5.02
		c0-1.61,0.96-2.51,2.43-2.51c0.7,0,1.44,0.13,1.44,0.13v1.59H8.5c-0.8,0-1.05,0.5-1.05,1.01v1.21h1.79L8.95,8.3h-1.5v4.5
		C10.53,12.32,12.88,9.66,12.88,6.44"/>
</g>
</svg>
