<?xml version="1.0" encoding="utf-8"?>
<!-- Generator: Adobe Illustrator 23.1.1, SVG Export Plug-In . SVG Version: 6.00 Build 0)  -->
<svg version="1.1" id="Layer_1" xmlns="http://www.w3.org/2000/svg" xmlns:xlink="http://www.w3.org/1999/xlink" x="0px" y="0px"
	 viewBox="0 0 35.24 33.5" style="enable-background:new 0 0 35.24 33.5;" xml:space="preserve">
<style type="text/css">
	.st0{clip-path:url(#SVGID_2_);fill:none;stroke:#FFFFFF;stroke-linecap:round;stroke-miterlimit:10;}
	.st1{clip-path:url(#SVGID_2_);fill:none;stroke:#FFFFFF;stroke-linecap:round;stroke-linejoin:round;stroke-miterlimit:10;}
</style>
<g>
	<defs>
		<rect id="SVGID_1_" y="0" width="35.24" height="33.5"/>
	</defs>
	<clipPath id="SVGID_2_">
		<use xlink:href="#SVGID_1_"  style="overflow:visible;"/>
	</clipPath>
	<path class="st0" d="M20.82,1.06v31.38c0,0.5-0.76,0.75-1.22,0.4L6.44,23.55H1.49c-0.55,0-0.99-0.39-0.99-0.88V10.83
		c0-0.49,0.44-0.88,0.99-0.88h4.95L19.6,0.66C20.05,0.31,20.82,0.56,20.82,1.06z"/>
	<path class="st1" d="M25.51,11.9c2.4,0.37,4.23,2.44,4.23,4.94c0,2.5-1.83,4.58-4.23,4.94"/>
	<path class="st1" d="M29.36,7.97c3.2,1.66,5.39,5.01,5.39,8.87c0,3.86-2.19,7.21-5.39,8.87"/>
</g>
</svg>
