<?xml version="1.0" encoding="utf-8"?>
<!-- Generator: Adobe Illustrator 23.1.1, SVG Export Plug-In . SVG Version: 6.00 Build 0)  -->
<svg version="1.1" id="Layer_1" xmlns="http://www.w3.org/2000/svg" xmlns:xlink="http://www.w3.org/1999/xlink" x="0px" y="0px"
	 viewBox="0 0 52 52" style="enable-background:new 0 0 52 52;" xml:space="preserve">
<style type="text/css">
	
		.st0{clip-path:url(#SVGID_2_);fill:none;stroke:#FFFFFF;stroke-width:2;stroke-linecap:round;stroke-linejoin:round;stroke-miterlimit:10;}
</style>
<g>
	<defs>
		<rect id="SVGID_1_" width="52" height="52"/>
	</defs>
	<clipPath id="SVGID_2_">
		<use xlink:href="#SVGID_1_"  style="overflow:visible;"/>
	</clipPath>
	<path class="st0" d="M26,1C12.2,1,1,12.2,1,26s11.2,25,25,25s25-11.2,25-25S39.8,1,26,1z M38.6,21.3c0,0.3,0,0.5,0,0.8
		c0,8-6.1,17.1-17.1,17.1c-3.4,0-6.6-1-9.2-2.7c0.5,0.1,1,0.1,1.4,0.1c2.8,0,5.4-1,7.5-2.6c-2.6,0-4.9-1.8-5.6-4.2
		c0.4,0.1,0.7,0.1,1.1,0.1c0.5,0,1.1-0.1,1.6-0.2c-2.8-0.6-4.8-3-4.8-5.9c0,0,0-0.1,0-0.1c0.8,0.5,1.7,0.7,2.7,0.8
		c-1.6-1.1-2.7-2.9-2.7-5c0-1.1,0.3-2.1,0.8-3c3,3.6,7.4,6,12.4,6.3c-0.1-0.4-0.2-0.9-0.2-1.4c0-3.3,2.7-6,6-6
		c1.7,0,3.3,0.7,4.4,1.9c1.4-0.3,2.7-0.8,3.8-1.5c-0.5,1.4-1.4,2.6-2.7,3.3c1.2-0.1,2.4-0.5,3.5-0.9C40.8,19.3,39.7,20.4,38.6,21.3z
		"/>
</g>
<g>
	<defs>
		<rect id="SVGID_3_" width="52" height="52"/>
	</defs>
	<clipPath id="SVGID_4_">
		<use xlink:href="#SVGID_3_"  style="overflow:visible;"/>
	</clipPath>
</g>
</svg>
