<?xml version="1.0" encoding="utf-8"?>
<!-- Generator: Adobe Illustrator 23.1.1, SVG Export Plug-In . SVG Version: 6.00 Build 0)  -->
<svg version="1.1" id="Layer_1" xmlns="http://www.w3.org/2000/svg" xmlns:xlink="http://www.w3.org/1999/xlink" x="0px" y="0px"
	 viewBox="0 0 27.4 27.4" style="enable-background:new 0 0 27.4 27.4;" xml:space="preserve">
<style type="text/css">
	.st0{clip-path:url(#SVGID_2_);fill:#FFFFFF;}
</style>
<g>
	<defs>
		<rect id="SVGID_1_" y="0" width="27.4" height="27.4"/>
	</defs>
	<clipPath id="SVGID_2_">
		<use xlink:href="#SVGID_1_"  style="overflow:visible;"/>
	</clipPath>
	<path class="st0" d="M26.1,0.22l-12.4,12.4L1.3,0.22c-0.3-0.3-0.78-0.3-1.08,0c-0.3,0.3-0.3,0.78,0,1.08l12.4,12.4L0.22,26.1
		c-0.3,0.3-0.3,0.78,0,1.08c0.3,0.3,0.78,0.3,1.08,0l12.4-12.4l12.4,12.4c0.3,0.3,0.78,0.3,1.08,0c0.3-0.3,0.3-0.78,0-1.08
		l-12.4-12.4l12.4-12.4c0.3-0.3,0.3-0.78,0-1.08C26.88-0.07,26.39-0.07,26.1,0.22"/>
</g>
</svg>
