<?xml version="1.0" encoding="utf-8"?>
<!-- Generator: Adobe Illustrator 22.0.1, SVG Export Plug-In . SVG Version: 6.00 Build 0)  -->
<svg version="1.1" baseProfile="tiny" xmlns="http://www.w3.org/2000/svg" xmlns:xlink="http://www.w3.org/1999/xlink" x="0px"
	 y="0px" viewBox="0 0 16 16" xml:space="preserve">
<g id="Layer_1">
</g>
<g id="Layer_2">
	<path d="M8,5L8,5C7.7,5,7.5,4.8,7.5,4.5v-4C7.5,0.2,7.7,0,8,0h0c0.3,0,0.5,0.2,0.5,0.5v4C8.5,4.8,8.3,5,8,5z"/>
	<path d="M6.5,5.4L6.5,5.4C6.3,5.5,6,5.5,5.8,5.2l-2-3.5C3.7,1.5,3.8,1.2,4,1.1l0,0C4.2,0.9,4.5,1,4.7,1.3l2,3.5
		C6.8,5,6.7,5.3,6.5,5.4z"/>
	<path d="M5.4,6.5L5.4,6.5C5.3,6.7,5,6.8,4.7,6.7l-3.5-2C1,4.5,0.9,4.2,1.1,4l0,0c0.1-0.2,0.4-0.3,0.7-0.2l3.5,2
		C5.5,6,5.5,6.3,5.4,6.5z"/>
	<path d="M5,8L5,8c0,0.3-0.2,0.5-0.5,0.5h-4C0.2,8.5,0,8.3,0,8l0,0c0-0.3,0.2-0.5,0.5-0.5h4C4.8,7.5,5,7.7,5,8z"/>
	<path d="M5.4,9.5L5.4,9.5c0.1,0.2,0.1,0.5-0.2,0.7l-3.5,2c-0.2,0.1-0.5,0.1-0.7-0.2h0c-0.1-0.2-0.1-0.5,0.2-0.7l3.5-2
		C5,9.2,5.3,9.3,5.4,9.5z"/>
	<path d="M6.5,10.6L6.5,10.6c0.2,0.1,0.3,0.4,0.2,0.7l-2,3.5C4.5,15,4.2,15.1,4,14.9l0,0c-0.2-0.1-0.3-0.4-0.2-0.7l2-3.5
		C6,10.5,6.3,10.5,6.5,10.6z"/>
	<path d="M8,11L8,11c0.3,0,0.5,0.2,0.5,0.5v4C8.5,15.8,8.3,16,8,16h0c-0.3,0-0.5-0.2-0.5-0.5v-4C7.5,11.2,7.7,11,8,11z"/>
	<path d="M9.5,10.6L9.5,10.6c0.2-0.1,0.5-0.1,0.7,0.2l2,3.5c0.1,0.2,0.1,0.5-0.2,0.7v0c-0.2,0.1-0.5,0.1-0.7-0.2l-2-3.5
		C9.2,11,9.3,10.7,9.5,10.6z"/>
	<path d="M10.6,9.5L10.6,9.5c0.1-0.2,0.4-0.3,0.7-0.2l3.5,2c0.2,0.1,0.3,0.4,0.2,0.7h0c-0.1,0.2-0.4,0.3-0.7,0.2l-3.5-2
		C10.5,10,10.5,9.7,10.6,9.5z"/>
	<path d="M11,8L11,8c0-0.3,0.2-0.5,0.5-0.5h4C15.8,7.5,16,7.7,16,8v0c0,0.3-0.2,0.5-0.5,0.5h-4C11.2,8.5,11,8.3,11,8z"/>
	<path d="M10.6,6.5L10.6,6.5c-0.1-0.2-0.1-0.5,0.2-0.7l3.5-2c0.2-0.1,0.5-0.1,0.7,0.2l0,0c0.1,0.2,0.1,0.5-0.2,0.7l-3.5,2
		C11,6.8,10.7,6.7,10.6,6.5z"/>
	<path d="M9.5,5.4L9.5,5.4C9.3,5.3,9.2,5,9.3,4.7l2-3.5C11.5,1,11.8,0.9,12,1.1v0c0.2,0.1,0.3,0.4,0.2,0.7l-2,3.5
		C10,5.5,9.7,5.5,9.5,5.4z"/>
</g>
</svg>
